<?xml version="1.0" encoding="UTF-8" standalone="no"?><svg xmlns="http://www.w3.org/2000/svg" xmlns:xlink="http://www.w3.org/1999/xlink" contentScriptType="application/ecmascript" contentStyleType="text/css" height="466px" preserveAspectRatio="none" style="width:963px;height:466px;" version="1.1" viewBox="0 0 963 466" width="963px" zoomAndPan="magnify"><defs><filter height="300%" id="f13ncjmtwtntti" width="300%" x="-1" y="-1"><feGaussianBlur result="blurOut" stdDeviation="2.0"/><feColorMatrix in="blurOut" result="blurOut2" type="matrix" values="0 0 0 0 0 0 0 0 0 0 0 0 0 0 0 0 0 0 .4 0"/><feOffset dx="4.0" dy="4.0" in="blurOut2" result="blurOut3"/><feBlend in="SourceGraphic" in2="blurOut3" mode="normal"/></filter></defs><g><!--cluster Kafka--><rect fill="#FEFECE" filter="url(#f13ncjmtwtntti)" height="307" rx="12.5" ry="12.5" style="stroke: #A80036; stroke-width: 1.5;" width="760" x="14" y="148"/><rect fill="#FFFFFF" height="274.5117" rx="12.5" ry="12.5" style="stroke: #FFFFFF; stroke-width: 1.0;" width="754" x="17" y="177.4883"/><line style="stroke: #A80036; stroke-width: 1.5;" x1="14" x2="774" y1="174.4883" y2="174.4883"/><text fill="#000000" font-family="sans-serif" font-size="14" lengthAdjust="spacingAndGlyphs" textLength="38" x="375" y="165.5352">Kafka</text><!--cluster Zeek--><rect fill="#FEFECE" filter="url(#f13ncjmtwtntti)" height="85" rx="12.5" ry="12.5" style="stroke: #A80036; stroke-width: 1.5;" width="108" x="276" y="16"/><rect fill="#FFFFFF" height="52.5117" rx="12.5" ry="12.5" style="stroke: #FFFFFF; stroke-width: 1.0;" width="102" x="279" y="45.4883"/><line style="stroke: #A80036; stroke-width: 1.5;" x1="276" x2="384" y1="42.4883" y2="42.4883"/><text fill="#000000" font-family="sans-serif" font-size="14" lengthAdjust="spacingAndGlyphs" textLength="32" x="314" y="33.5352">Zeek</text><!--cluster logstash--><rect fill="#FEFECE" filter="url(#f13ncjmtwtntti)" height="328" rx="12.5" ry="12.5" style="stroke: #A80036; stroke-width: 1.5;" width="164" x="787" y="16"/><rect fill="#FFFFFF" height="295.5117" rx="12.5" ry="12.5" style="stroke: #FFFFFF; stroke-width: 1.0;" width="158" x="790" y="45.4883"/><line style="stroke: #A80036; stroke-width: 1.5;" x1="787" x2="951" y1="42.4883" y2="42.4883"/><text fill="#000000" font-family="sans-serif" font-size="14" lengthAdjust="spacingAndGlyphs" textLength="58" x="840" y="33.5352">logstash</text><rect fill="#FEFECE" filter="url(#f13ncjmtwtntti)" height="50" rx="12.5" ry="12.5" style="stroke: #A80036; stroke-width: 1.5;" width="160" x="577" y="175"/><line style="stroke: #A80036; stroke-width: 1.5;" x1="577" x2="737" y1="201.4883" y2="201.4883"/><text fill="#000000" font-family="sans-serif" font-size="14" lengthAdjust="spacingAndGlyphs" textLength="140" x="587" y="193.5352">Zookpeeper_server1</text><rect fill="#FEFECE" filter="url(#f13ncjmtwtntti)" height="50" rx="12.5" ry="12.5" style="stroke: #A80036; stroke-width: 1.5;" width="168" x="598" y="397"/><line style="stroke: #A80036; stroke-width: 1.5;" x1="598" x2="766" y1="423.4883" y2="423.4883"/><text fill="#000000" font-family="sans-serif" font-size="14" lengthAdjust="spacingAndGlyphs" textLength="148" x="608" y="415.5352">Zookpeeper_server_N</text><rect fill="#FEFECE" filter="url(#f13ncjmtwtntti)" height="50" rx="12.5" ry="12.5" style="stroke: #A80036; stroke-width: 1.5;" width="148" x="363" y="175"/><line style="stroke: #A80036; stroke-width: 1.5;" x1="363" x2="511" y1="201.4883" y2="201.4883"/><text fill="#000000" font-family="sans-serif" font-size="14" lengthAdjust="spacingAndGlyphs" textLength="128" x="373" y="193.5352">Kafka_broker_ID_1</text><rect fill="#FEFECE" filter="url(#f13ncjmtwtntti)" height="50" rx="12.5" ry="12.5" style="stroke: #A80036; stroke-width: 1.5;" width="252" x="311" y="397"/><line style="stroke: #A80036; stroke-width: 1.5;" x1="311" x2="563" y1="423.4883" y2="423.4883"/><text fill="#000000" font-family="sans-serif" font-size="14" lengthAdjust="spacingAndGlyphs" textLength="232" x="321" y="415.5352">Kafka_produce_meta_brokerlist_1</text><rect fill="#FEFECE" filter="url(#f13ncjmtwtntti)" height="50" rx="12.5" ry="12.5" style="stroke: #A80036; stroke-width: 1.5;" width="149" x="126.5" y="175"/><line style="stroke: #A80036; stroke-width: 1.5;" x1="126.5" x2="275.5" y1="201.4883" y2="201.4883"/><text fill="#000000" font-family="sans-serif" font-size="14" lengthAdjust="spacingAndGlyphs" textLength="129" x="136.5" y="193.5352">Kafka_broker_ID_N</text><rect fill="#FEFECE" filter="url(#f13ncjmtwtntti)" height="50" rx="12.5" ry="12.5" style="stroke: #A80036; stroke-width: 1.5;" width="253" x="22.5" y="397"/><line style="stroke: #A80036; stroke-width: 1.5;" x1="22.5" x2="275.5" y1="423.4883" y2="423.4883"/><text fill="#000000" font-family="sans-serif" font-size="14" lengthAdjust="spacingAndGlyphs" textLength="233" x="32.5" y="415.5352">Kafka_produce_meta_brokerlist_N</text><rect fill="#FEFECE" filter="url(#f13ncjmtwtntti)" height="50" rx="12.5" ry="12.5" style="stroke: #A80036; stroke-width: 1.5;" width="91" x="284.5" y="43"/><line style="stroke: #A80036; stroke-width: 1.5;" x1="284.5" x2="375.5" y1="69.4883" y2="69.4883"/><text fill="#000000" font-family="sans-serif" font-size="14" lengthAdjust="spacingAndGlyphs" textLength="71" x="294.5" y="61.5352">Zeek_Logs</text><rect fill="#FEFECE" filter="url(#f13ncjmtwtntti)" height="50" rx="12.5" ry="12.5" style="stroke: #A80036; stroke-width: 1.5;" width="109" x="804.5" y="43"/><line style="stroke: #A80036; stroke-width: 1.5;" x1="804.5" x2="913.5" y1="69.4883" y2="69.4883"/><text fill="#000000" font-family="sans-serif" font-size="14" lengthAdjust="spacingAndGlyphs" textLength="89" x="814.5" y="61.5352">Kafka_plugin</text><rect fill="#FEFECE" filter="url(#f13ncjmtwtntti)" height="50" rx="12.5" ry="12.5" style="stroke: #A80036; stroke-width: 1.5;" width="148" x="795" y="286"/><line style="stroke: #A80036; stroke-width: 1.5;" x1="795" x2="943" y1="312.4883" y2="312.4883"/><text fill="#000000" font-family="sans-serif" font-size="14" lengthAdjust="spacingAndGlyphs" textLength="128" x="805" y="304.5352">Kafka_broker_ID_2</text><!--link Zookpeeper_server1 to Zookpeeper_server_N--><path d="M659.8192,225.0347 C664.4331,266.006 673.581,347.2393 678.566,391.5062 " fill="none" id="Zookpeeper_server1-Zookpeeper_server_N" style="stroke: #A80036; stroke-width: 1.0;"/><polygon fill="#A80036" points="679.1527,396.7162,682.1201,387.325,678.593,391.7476,674.1704,388.2205,679.1527,396.7162" style="stroke: #A80036; stroke-width: 1.0;"/><text fill="#000000" font-family="sans-serif" font-size="13" lengthAdjust="spacingAndGlyphs" textLength="101" x="674" y="316.0684">autopurge_Logs</text><!--link Kafka_broker_ID_1 to Kafka_produce_meta_brokerlist_1--><path d="M437,225.0347 C437,266.006 437,347.2393 437,391.5062 " fill="none" id="Kafka_broker_ID_1-Kafka_produce_meta_brokerlist_1" style="stroke: #A80036; stroke-width: 1.0;"/><polygon fill="#A80036" points="437,396.7162,441,387.7162,437,391.7162,433,387.7162,437,396.7162" style="stroke: #A80036; stroke-width: 1.0;"/><!--link Kafka_broker_ID_N to Kafka_produce_meta_brokerlist_N--><path d="M195.136,225.0347 C185.5196,266.0893 166.4341,347.5697 156.0796,391.7757 " fill="none" id="Kafka_broker_ID_N-Kafka_produce_meta_brokerlist_N" style="stroke: #A80036; stroke-width: 1.0;"/><polygon fill="#A80036" points="154.9223,396.7162,160.8696,388.8658,156.0627,391.848,153.0805,387.0411,154.9223,396.7162" style="stroke: #A80036; stroke-width: 1.0;"/><!--link Zeek_Logs to Kafka_broker_ID_1--><path d="M350.3777,93.1389 C368.3759,115.3422 394.6193,147.7173 413.4985,171.0075 " fill="none" id="Zeek_Logs-Kafka_broker_ID_1" style="stroke: #A80036; stroke-width: 1.0;"/><polygon fill="#A80036" points="416.6981,174.9547,414.138,165.4444,413.5495,171.0706,407.9234,170.4821,416.6981,174.9547" style="stroke: #A80036; stroke-width: 1.0;"/><text fill="#000000" font-family="sans-serif" font-size="13" lengthAdjust="spacingAndGlyphs" textLength="30" x="387" y="136.5684">SASL</text><!--link Zeek_Logs to Kafka_broker_ID_N--><path d="M305.4324,93.1389 C283.6441,115.434 251.8328,147.985 229.0518,171.2958 " fill="none" id="Zeek_Logs-Kafka_broker_ID_N" style="stroke: #A80036; stroke-width: 1.0;"/><polygon fill="#A80036" points="225.4761,174.9547,234.6272,171.3137,228.9708,171.3788,228.9057,165.7223,225.4761,174.9547" style="stroke: #A80036; stroke-width: 1.0;"/><text fill="#000000" font-family="sans-serif" font-size="13" lengthAdjust="spacingAndGlyphs" textLength="30" x="274" y="136.5684">SASL</text><!--link Kafka_plugin to Kafka_broker_ID_1--><path d="M804.3058,80.2258 C743.8296,94.2984 643.8595,119.21 560,148 C538.9891,155.2133 516.4751,164.3117 496.5267,172.8736 " fill="none" id="Kafka_plugin-Kafka_broker_ID_1" style="stroke: #A80036; stroke-width: 1.0;"/><polygon fill="#A80036" points="491.7805,174.9211,501.6288,175.0286,496.3715,172.9404,498.4597,167.6831,491.7805,174.9211" style="stroke: #A80036; stroke-width: 1.0;"/><text fill="#000000" font-family="sans-serif" font-size="13" lengthAdjust="spacingAndGlyphs" textLength="63" x="633" y="136.5684">SASL : SSL</text><!--link Kafka_plugin to Kafka_broker_ID_2--><path d="M860.0325,93.09 C861.8814,138.0175 865.7502,232.0304 867.7474,280.563 " fill="none" id="Kafka_plugin-Kafka_broker_ID_2" style="stroke: #A80036; stroke-width: 1.0;"/><polygon fill="#A80036" points="867.9581,285.6824,871.5847,276.5256,867.7525,280.6866,863.5915,276.8545,867.9581,285.6824" style="stroke: #A80036; stroke-width: 1.0;"/><text fill="#000000" font-family="sans-serif" font-size="13" lengthAdjust="spacingAndGlyphs" textLength="63" x="866" y="205.0684">SASL : SSL</text><!--
@startuml

state Kafka {
Zookpeeper_server1 - -> Zookpeeper_server_N : autopurge_Logs
Kafka_broker_ID_1 - -> Kafka_produce_meta_brokerlist_1
Kafka_broker_ID_N - -> Kafka_produce_meta_brokerlist_N

}




state Zeek {
 Zeek_Logs - -> Kafka_broker_ID_1 : SASL
 Zeek_Logs - -> Kafka_broker_ID_N : SASL

}

state logstash {
Kafka_plugin - -> Kafka_broker_ID_1 : SASL : SSL
Kafka_plugin - -> Kafka_broker_ID_2 : SASL : SSL

}

@enduml

PlantUML version 1.2018.14(Fri Dec 21 08:33:16 PST 2018)
(GPL source distribution)
Java Runtime: Java(TM) SE Runtime Environment
JVM: Java HotSpot(TM) 64-Bit Server VM
Java Version: 1.8.0_151-b12
Operating System: Mac OS X
OS Version: 10.14.2
Default Encoding: UTF-8
Language: zh
Country: CN
--></g></svg>